<svg width="24" height="24" viewBox="0 0 24 24" fill="none" xmlns="http://www.w3.org/2000/svg">
<rect width="24" height="24" fill="white" style="mix-blend-mode:multiply"/>
<path d="M20.9324 13.4101C21.008 12.9439 21.0456 12.4723 21.0449 12.0001C21.0449 9.60119 20.0919 7.30055 18.3957 5.60429C16.6994 3.90802 14.3988 2.95507 11.9999 2.95507C11.5276 2.95433 11.0561 2.99196 10.5899 3.06757C9.54445 2.44132 8.31975 2.1823 7.11027 2.33163C5.90079 2.48097 4.77587 3.0301 3.91415 3.89182C3.05242 4.75355 2.50329 5.87847 2.35396 7.08794C2.20462 8.29742 2.46365 9.52212 3.08989 10.5676C3.00552 11.0405 2.96036 11.5197 2.95489 12.0001C2.95489 14.399 3.90784 16.6996 5.60411 18.3959C7.30038 20.0921 9.60101 21.0451 11.9999 21.0451C12.4722 21.0458 12.9437 21.0082 13.4099 20.9326C14.4553 21.5588 15.68 21.8178 16.8895 21.6685C18.099 21.5192 19.2239 20.97 20.0856 20.1083C20.9474 19.2466 21.4965 18.1217 21.6458 16.9122C21.7952 15.7027 21.5361 14.478 20.9099 13.4326L20.9324 13.4101ZM16.2974 16.1101C15.874 16.6953 15.2907 17.1459 14.6174 17.4076C13.7867 17.7336 12.8996 17.8916 12.0074 17.8726C10.9689 17.916 9.93579 17.7022 8.99989 17.2501C8.45426 16.9568 7.98634 16.5377 7.63489 16.0276C7.31296 15.5918 7.12998 15.069 7.10989 14.5276C7.1091 14.3871 7.13734 14.248 7.19283 14.1189C7.24833 13.9898 7.32988 13.8736 7.43239 13.7776C7.65955 13.5842 7.95198 13.485 8.24989 13.5001C8.49885 13.4954 8.74117 13.5806 8.93239 13.7401C9.14171 13.9359 9.30335 14.177 9.40489 14.4451C9.53501 14.7583 9.70113 15.0553 9.89989 15.3301C10.098 15.5838 10.3556 15.7847 10.6499 15.9151C11.0496 16.0866 11.4828 16.166 11.9174 16.1476C12.5364 16.1776 13.1495 16.0151 13.6724 15.6826C13.8731 15.565 14.04 15.3976 14.1569 15.1965C14.2739 14.9955 14.3369 14.7676 14.3399 14.5351C14.3464 14.3722 14.3183 14.2098 14.2576 14.0586C14.1968 13.9074 14.1047 13.7707 13.9874 13.6576C13.7203 13.4115 13.3992 13.2317 13.0499 13.1326C12.6599 13.0051 12.1424 12.8776 11.4899 12.7351C10.7405 12.5606 10.0096 12.3145 9.30739 12.0001C8.75481 11.7736 8.26756 11.4127 7.88989 10.9501C7.53169 10.4732 7.34652 9.88867 7.36489 9.29257C7.35883 8.68657 7.55403 8.0957 7.91989 7.61257C8.33778 7.09338 8.8943 6.7033 9.52489 6.48757C10.3222 6.22273 11.1601 6.10086 11.9999 6.12757C12.657 6.11595 13.312 6.20446 13.9424 6.39007C14.4371 6.53697 14.9019 6.7706 15.3149 7.08007C15.6399 7.3242 15.9107 7.63324 16.1099 7.98757C16.272 8.2738 16.3597 8.59615 16.3649 8.92507C16.3639 9.06528 16.3349 9.20388 16.2795 9.3327C16.2241 9.46151 16.1435 9.57792 16.0424 9.67507C15.9403 9.78566 15.8161 9.87353 15.6779 9.93297C15.5396 9.99241 15.3904 10.0221 15.2399 10.0201C14.9986 10.0388 14.7594 9.96359 14.5724 9.81007C14.3756 9.62044 14.2109 9.40006 14.0849 9.15757C13.8991 8.77532 13.63 8.43958 13.2974 8.17507C12.8609 7.90294 12.347 7.78172 11.8349 7.83007C11.3092 7.80791 10.7883 7.93813 10.3349 8.20507C10.1702 8.29302 10.0311 8.42216 9.9312 8.5799C9.8313 8.73764 9.774 8.91858 9.76489 9.10507C9.75895 9.30884 9.82538 9.50812 9.95239 9.66757C10.102 9.84089 10.2858 9.98134 10.4924 10.0801C10.7124 10.1939 10.9436 10.2843 11.1824 10.3501C11.4224 10.4176 11.8124 10.5151 12.3599 10.6426C13.0499 10.7926 13.6649 10.9576 14.2274 11.1376C14.7305 11.2909 15.2101 11.513 15.6524 11.7976C16.0382 12.0416 16.3557 12.3797 16.5749 12.7801C16.7978 13.2368 16.901 13.7426 16.8749 14.2501C16.8817 14.9152 16.6797 15.5657 16.2974 16.1101Z" fill="#2A254B"/>
</svg>
